<svg xmlns="http://www.w3.org/2000/svg" viewBox="0 0 400 380" role="img" aria-label="POPgen">
  <g fill="none" stroke="#5B2A86" stroke-width="15" stroke-linecap="round" stroke-linejoin="round">
    <path d="M112 62 C130 30 152 12 178 8 C196 30 214 46 236 36 C268 20 300 10 372 82"/>
    <path d="M20 92 C40 100 66 108 84 92 C100 78 108 62 112 62"/>
    <path d="M20 92 C24 130 30 168 42 210"/>
    <path d="M372 82 C368 130 358 158 340 178"/>
    <path d="M340 178 C348 198 356 210 372 216"/>
    <path d="M42 210 C64 226 92 236 112 226"/>
    <path d="M112 226 C104 250 96 272 100 296 C104 320 118 336 150 356"/>
    <path d="M150 356 C210 372 260 366 300 340"/>
    <path d="M300 340 C288 322 282 306 292 288"/>
    <path d="M292 288 C310 296 328 292 344 276 C356 262 362 246 356 224"/>
  </g>
  <text x="200" y="150" font-family="'Arial Black', Arial, sans-serif" font-weight="900" font-size="88" letter-spacing="2" fill="#111111" text-anchor="middle">POP</text>
  <text x="230" y="252" font-family="'Arial Black', Arial, sans-serif" font-weight="900" font-size="88" letter-spacing="2" fill="#111111" text-anchor="middle">GEN</text>
  <g transform="translate(118,206)" stroke="#111111" stroke-width="4" fill="none" stroke-linecap="round">
    <path d="M0,0 C10,8 10,16 0,24 C-10,32 -10,40 0,48"/>
    <path d="M22,0 C12,8 12,16 22,24 C32,32 32,40 22,48"/>
    <line x1="2" y1="4" x2="20" y2="4"/>
    <line x1="0" y1="14" x2="22" y2="14"/>
    <line x1="-1" y1="24" x2="23" y2="24"/>
    <line x1="0" y1="34" x2="22" y2="34"/>
    <line x1="2" y1="44" x2="20" y2="44"/>
  </g>
</svg>
